<?xml version="1.0" encoding="UTF-8" standalone="no"?>
<svg
   width="48"
   height="48"
   version="1"
   id="svg4"
   sodipodi:docname="accessories-dictionary.svg"
   inkscape:version="1.4.3 (0d15f75042, 2025-12-25)"
   xmlns:inkscape="http://www.inkscape.org/namespaces/inkscape"
   xmlns:sodipodi="http://sodipodi.sourceforge.net/DTD/sodipodi-0.dtd"
   xmlns="http://www.w3.org/2000/svg"
   xmlns:svg="http://www.w3.org/2000/svg">
  <defs
     id="defs4" />
  <sodipodi:namedview
     id="namedview4"
     pagecolor="#ffffff"
     bordercolor="#000000"
     borderopacity="0.25"
     inkscape:showpageshadow="2"
     inkscape:pageopacity="0.0"
     inkscape:pagecheckerboard="0"
     inkscape:deskcolor="#d1d1d1"
     showgrid="false"
     inkscape:zoom="11.041667"
     inkscape:cx="23.954717"
     inkscape:cy="23.954717"
     inkscape:window-width="1332"
     inkscape:window-height="734"
     inkscape:window-x="0"
     inkscape:window-y="0"
     inkscape:window-maximized="1"
     inkscape:current-layer="svg4" />
  <path
     fill="#c2352a"
     d="m20 3c-1 0-1 1.0286-1 1.0286v16.971l2.5-1.543 2.5 1.543v-16.971c0-1.029-1-1.029-1-1.029z"
     id="path6"
     style="fill:#a5f5fc;stroke:#ffffff;stroke-width:4;stroke-dasharray:none;stroke-linejoin:round;stroke-linecap:round;paint-order:stroke fill markers" />
  <rect
     fill="#e4e4e4"
     width="40"
     height="40"
     x="4"
     y="4"
     rx="2"
     ry="2"
     id="rect6"
     style="fill:#a5f5fc;stroke:#ffffff;stroke-width:4;stroke-dasharray:none;stroke-linejoin:round;stroke-linecap:round;paint-order:stroke fill markers" />
  <path
     fill="#c2352a"
     d="m20 3c-1 0-1 1.0286-1 1.0286v16.971l2.5-1.543 2.5 1.543v-16.971c0-1.029-1-1.029-1-1.029z"
     id="path5"
     style="fill:#25a6e8;stroke:#45637f;stroke-width:2;stroke-dasharray:none;stroke-linejoin:round;stroke-linecap:round;paint-order:stroke fill markers" />
  <rect
     fill="#e4e4e4"
     width="40"
     height="40"
     x="4"
     y="4"
     rx="2"
     ry="2"
     id="rect1"
     style="fill:#e9f5ff;stroke:#45637f;stroke-width:2;stroke-dasharray:none;stroke-linejoin:round;stroke-linecap:round;paint-order:stroke fill markers" />
  <path
     opacity=".1"
     transform="matrix(0,-1,-1,0,0,0)"
     d="m-42-44h36c1.108 0 2 0.892 2 2v18h-40v-18c0-1.108 0.892-2 2-2z"
     id="path1"
     style="fill:#a5f5fc;opacity:0.784" />
  <path
     fill="#fff"
     opacity=".2"
     d="m6 4c-1.108 0-2 0.892-2 2v1c0-1.108 0.892-2 2-2h36c1.108 0 2 0.892 2 2v-1c0-1.108-0.892-2-2-2h-36z"
     id="path2"
     style="opacity:0.544" />
  <path
     fill="#c2352a"
     d="m20 3c-1 0-1 1.0286-1 1.0286v16.971l2.5-1.543 2.5 1.543v-16.971c0-1.029-1-1.029-1-1.029z"
     id="path4"
     style="fill:#25a6e8" />
</svg>
