<?xml version="1.0" encoding="UTF-8" standalone="no"?>
<svg
   width="48"
   height="48"
   version="1"
   id="svg10"
   sodipodi:docname="applications-interfacedesign.svg"
   xml:space="preserve"
   inkscape:version="1.4.3 (0d15f75042, 2025-12-25)"
   xmlns:inkscape="http://www.inkscape.org/namespaces/inkscape"
   xmlns:sodipodi="http://sodipodi.sourceforge.net/DTD/sodipodi-0.dtd"
   xmlns="http://www.w3.org/2000/svg"
   xmlns:svg="http://www.w3.org/2000/svg"><defs
     id="defs10" /><sodipodi:namedview
     id="namedview10"
     pagecolor="#ffffff"
     bordercolor="#000000"
     borderopacity="0.25"
     inkscape:showpageshadow="2"
     inkscape:pageopacity="0.0"
     inkscape:pagecheckerboard="0"
     inkscape:deskcolor="#d1d1d1"
     showgrid="false"
     inkscape:zoom="12.642857"
     inkscape:cx="23.016949"
     inkscape:cy="22.028249"
     inkscape:window-width="1332"
     inkscape:window-height="734"
     inkscape:window-x="0"
     inkscape:window-y="0"
     inkscape:window-maximized="1"
     inkscape:current-layer="svg10" /><path
     fill="#5a6367"
     d="m6 6c-1.1088 0-2 0.8915-2 1.9995v3.0005h40v-3.0005c0-1.108-0.891-1.9995-2-1.9995h-36z"
     id="path11"
     style="fill:#01b1ec;fill-opacity:1;stroke:#ffffff;stroke-opacity:1;stroke-width:4;stroke-dasharray:none;stroke-linejoin:round;stroke-linecap:round;paint-order:stroke fill markers" /><path
     style="fill:#e9f5ff;fill-opacity:1;stroke:#ffffff;stroke-opacity:1;stroke-width:4;stroke-dasharray:none;stroke-linejoin:round;stroke-linecap:round;paint-order:stroke fill markers"
     d="m4 11v29c0 1.1088 0.89125 2 2 2h36.001c1.108 0 1.999-0.891 1.999-2v-29z"
     id="path12" /><path
     fill="#5a6367"
     d="m6 6c-1.1088 0-2 0.8915-2 1.9995v3.0005h40v-3.0005c0-1.108-0.891-1.9995-2-1.9995h-36z"
     id="path10"
     style="fill:#01b1ec;fill-opacity:1;stroke:#45637f;stroke-opacity:1;stroke-width:2;stroke-dasharray:none;stroke-linejoin:round;stroke-linecap:round;paint-order:stroke fill markers" /><path
     style="fill:#e9f5ff;fill-opacity:1;stroke:#45637f;stroke-opacity:1;stroke-width:2;stroke-dasharray:none;stroke-linejoin:round;stroke-linecap:round;paint-order:stroke fill markers"
     d="m4 11v29c0 1.1088 0.89125 2 2 2h36.001c1.108 0 1.999-0.891 1.999-2v-29z"
     id="path1" /><rect
     style="opacity:1;fill:#afceec;fill-opacity:1"
     width="32"
     height="4"
     x="8"
     y="31"
     rx="1.523"
     ry="1.658"
     id="rect1" /><path
     fill="#5a6367"
     d="m6 6c-1.1088 0-2 0.8915-2 1.9995v3.0005h40v-3.0005c0-1.108-0.891-1.9995-2-1.9995h-36z"
     id="path2"
     style="fill:#01b1ec;fill-opacity:1" /><path
     fill="#fff"
     opacity=".1"
     d="m6 6c-1.1088 0-2 0.892-2 2v1c0-1.108 0.8912-2 2-2h36c1.1088 0 2 0.892 2 2v-1c0-1.108-0.891-2-2-2h-36z"
     id="path3"
     style="fill:#a5f5fc;fill-opacity:1;opacity:0.404" /><rect
     style="fill:#26caff;fill-opacity:1"
     width="32"
     height="4"
     x="8"
     y="30"
     rx="1.523"
     ry="1.658"
     id="rect4" /><path
     style="opacity:0.614;fill-rule:evenodd;fill:#afceec;fill-opacity:1"
     d="m 36,33 c 0,3.311997 -2.688003,6 -6,6 -3.312,0 -6,-2.688003 -6,-6 0,-3.312 2.688,-6 6,-6 3.311997,0 6,2.688 6,6 z"
     id="path5" /><path
     style="fill:#42759f;fill-rule:evenodd;fill-opacity:1"
     d="m 36,32 c 0,3.311997 -2.688003,6 -6,6 -3.312,0 -6,-2.688003 -6,-6 0,-3.312 2.688,-6 6,-6 3.311997,0 6,2.688 6,6 z"
     id="path6" /><circle
     style="opacity:1;fill:#afceec;fill-opacity:1"
     cx="10"
     cy="17"
     r="2"
     id="circle6" /><circle
     style="fill:#26caff;fill-opacity:1"
     cx="10"
     cy="16"
     r="2"
     id="circle7" /><rect
     style="opacity:1;fill:#afceec;fill-opacity:1"
     width="4"
     height="4"
     x="16"
     y="22"
     rx=".629"
     ry=".687"
     id="rect7" /><rect
     style="fill:#42759f;fill-opacity:1"
     width="4"
     height="4"
     x="16"
     y="21"
     rx=".629"
     ry=".687"
     id="rect8" /><circle
     style="opacity:1;fill:#afceec;fill-opacity:1"
     cx="10"
     cy="24"
     r="2"
     id="circle8" /><circle
     style="fill:#42759f;fill-opacity:1"
     cx="10"
     cy="23"
     r="2"
     id="circle9" /><rect
     style="opacity:1;fill:#afceec;fill-opacity:1"
     width="4"
     height="4"
     x="16"
     y="15"
     rx=".629"
     ry=".687"
     id="rect9" /><rect
     style="fill:#26caff;fill-opacity:1"
     width="4"
     height="4"
     x="16"
     y="14"
     rx=".629"
     ry=".687"
     id="rect10" /></svg>
