<?xml version="1.0" encoding="UTF-8" standalone="no"?>
<svg
   width="48"
   height="48"
   version="1"
   id="svg4"
   sodipodi:docname="system-suspend.svg"
   inkscape:version="1.4.3 (0d15f75042, 2025-12-25)"
   xmlns:inkscape="http://www.inkscape.org/namespaces/inkscape"
   xmlns:sodipodi="http://sodipodi.sourceforge.net/DTD/sodipodi-0.dtd"
   xmlns="http://www.w3.org/2000/svg"
   xmlns:svg="http://www.w3.org/2000/svg">
  <defs
     id="defs4" />
  <sodipodi:namedview
     id="namedview4"
     pagecolor="#ffffff"
     bordercolor="#000000"
     borderopacity="0.25"
     inkscape:showpageshadow="2"
     inkscape:pageopacity="0.0"
     inkscape:pagecheckerboard="0"
     inkscape:deskcolor="#d1d1d1"
     showgrid="false"
     inkscape:zoom="9.5625"
     inkscape:cx="24"
     inkscape:cy="23.947712"
     inkscape:window-width="1332"
     inkscape:window-height="734"
     inkscape:window-x="0"
     inkscape:window-y="0"
     inkscape:window-maximized="1"
     inkscape:current-layer="svg4" />
  <path
     style="fill:#45637f;stroke:#ffffff;stroke-width:3;stroke-dasharray:none;stroke-linejoin:round;stroke-linecap:round;paint-order:stroke fill markers"
     d="M 24,10 A 14,14 0 0 0 10,24 14,14 0 0 0 24,38 14,14 0 0 0 38,24 14,14 0 0 0 24,10 Z m 0,4 A 10,10 0 0 1 34,24 10,10 0 0 1 24,34 10,10 0 0 1 14,24 10,10 0 0 1 24,14 Z m -3.980469,8 a 1.9907489,2.0002 0 1 0 0,4 h 7.960938 a 1.9907489,2.0002 0 1 0 0,-4 z"
     id="path4" />
</svg>
