<?xml version="1.0" encoding="UTF-8" standalone="no"?>
<svg
   width="48"
   height="48"
   version="1"
   id="svg4"
   sodipodi:docname="system-lock-screen.svg"
   inkscape:version="1.4.3 (0d15f75042, 2025-12-25)"
   xmlns:inkscape="http://www.inkscape.org/namespaces/inkscape"
   xmlns:sodipodi="http://sodipodi.sourceforge.net/DTD/sodipodi-0.dtd"
   xmlns="http://www.w3.org/2000/svg"
   xmlns:svg="http://www.w3.org/2000/svg">
  <defs
     id="defs4" />
  <sodipodi:namedview
     id="namedview4"
     pagecolor="#ffffff"
     bordercolor="#000000"
     borderopacity="0.25"
     inkscape:showpageshadow="2"
     inkscape:pageopacity="0.0"
     inkscape:pagecheckerboard="0"
     inkscape:deskcolor="#d1d1d1"
     showgrid="false"
     inkscape:zoom="9.5625"
     inkscape:cx="24"
     inkscape:cy="23.947712"
     inkscape:window-width="1332"
     inkscape:window-height="734"
     inkscape:window-x="0"
     inkscape:window-y="0"
     inkscape:window-maximized="1"
     inkscape:current-layer="svg4" />
  <path
     style="fill:#45637f;stroke:#ffffff;stroke-width:3;stroke-dasharray:none;stroke-linejoin:miter;stroke-linecap:round;paint-order:stroke fill markers"
     d="m 24,10 c -4.432,0 -8,3.568 -8,8 v 4 h -2 c -1.108,0 -2,0.892 -2,2 v 12 c 0,1.108 0.892,2 2,2 h 20 c 1.108,0 2,-0.892 2,-2 V 24 c 0,-1.108 -0.892,-2 -2,-2 h -2 v -4 c 0,-4.432 -3.568,-8 -8,-8 z m 0,4 c 2.216,0 4,1.784 4,4 v 4 h -8 v -4 c 0,-2.216 1.784,-4 4,-4 z"
     id="path4" />
</svg>
