<?xml version="1.0" encoding="UTF-8" standalone="no"?>
<svg
   width="48"
   height="48"
   version="1"
   id="svg8"
   sodipodi:docname="utilities-terminal.svg"
   xml:space="preserve"
   inkscape:version="1.4.3 (0d15f75042, 2025-12-25)"
   xmlns:inkscape="http://www.inkscape.org/namespaces/inkscape"
   xmlns:sodipodi="http://sodipodi.sourceforge.net/DTD/sodipodi-0.dtd"
   xmlns="http://www.w3.org/2000/svg"
   xmlns:svg="http://www.w3.org/2000/svg"><defs
     id="defs8" /><sodipodi:namedview
     id="namedview8"
     pagecolor="#ffffff"
     bordercolor="#000000"
     borderopacity="0.25"
     inkscape:showpageshadow="2"
     inkscape:pageopacity="0.0"
     inkscape:pagecheckerboard="0"
     inkscape:deskcolor="#d1d1d1"
     showgrid="false"
     inkscape:zoom="10.270833"
     inkscape:cx="18.255578"
     inkscape:cy="22.929006"
     inkscape:window-width="1332"
     inkscape:window-height="734"
     inkscape:window-x="0"
     inkscape:window-y="0"
     inkscape:window-maximized="1"
     inkscape:current-layer="svg8" /><rect
     style="fill:#e9f5ff;fill-opacity:1;stroke:#ffffff;stroke-opacity:1;stroke-linejoin:round;stroke-linecap:round;paint-order:stroke fill markers;stroke-width:4;stroke-dasharray:none"
     width="40"
     height="36"
     x="4"
     y="6"
     rx="3"
     ry="3"
     id="rect9" /><rect
     style="fill:#e9f5ff;fill-opacity:1;stroke:#45637f;stroke-opacity:1;stroke-linejoin:round;stroke-linecap:round;paint-order:stroke fill markers;stroke-width:2;stroke-dasharray:none"
     width="40"
     height="36"
     x="4"
     y="6"
     rx="3"
     ry="3"
     id="rect2" /><path
     style="fill:#ffffff;opacity:1;fill-opacity:1"
     d="M 7 6 C 5.338 6 4 7.338 4 9 L 4 10 C 4 8.338 5.338 7 7 7 L 41 7 C 42.662 7 44 8.338 44 10 L 44 9 C 44 7.338 42.662 6 41 6 L 7 6 z"
     id="path2" /><rect
     style="opacity:1;fill:#afceec;fill-opacity:1"
     width="12"
     height="4"
     x="20"
     y="23"
     rx="1"
     ry="1"
     id="rect3" /><rect
     style="fill:#26caff;fill-opacity:1"
     width="12"
     height="4"
     x="20"
     y="22"
     rx="1"
     ry="1"
     id="rect4" /><g
     style="opacity:1;fill:#afceec;fill-opacity:1"
     id="g6"><rect
       width="12.245"
       height="4.082"
       x="-12.71"
       y="23.12"
       rx="1.02"
       ry="1.02"
       transform="matrix(0.72685813,-0.68678763,0.72685813,0.68678763,0,0)"
       id="rect5"
       style="fill:#afceec;fill-opacity:1" /><rect
       width="12.245"
       height="4.082"
       x="14.96"
       y="-4.55"
       rx="1.02"
       ry="1.02"
       transform="matrix(0.72685813,0.68678763,0.72685813,-0.68678763,0,0)"
       id="rect6"
       style="fill:#afceec;fill-opacity:1" /></g><rect
     style="fill:#01b1ec;fill-opacity:1"
     width="12.245"
     height="4.082"
     x="-11.98"
     y="22.39"
     rx="1.02"
     ry="1.02"
     transform="matrix(0.72686,-0.68679,0.72686,0.68679,0,0)"
     id="rect7" /><rect
     style="fill:#26caff;fill-opacity:1"
     width="12.245"
     height="4.082"
     x="14.23"
     y="-3.82"
     rx="1.02"
     ry="1.02"
     transform="matrix(0.72686,0.68679,0.72686,-0.68679,0,0)"
     id="rect8" /><path
     style="display:inline;opacity:1;fill:#25a6e8;fill-opacity:1"
     transform="matrix(0.72686,0.68679,0.72686,-0.68679,0,0)"
     d="m 22.39,-3.8193 v -0.7281 l 3.793,3e-4 c 0.101,0 0.198,0.0146 0.289,0.0415 l 10e-4,1.6524 C 26.445,-3.393 26.001,-3.8205 25.454,-3.8205 Z"
     id="path8" /></svg>
