<?xml version="1.0" encoding="UTF-8" standalone="no"?>
<svg
   width="48"
   height="48"
   version="1"
   id="svg13"
   sodipodi:docname="utilities-log-viewer.svg"
   xml:space="preserve"
   inkscape:version="1.4.3 (0d15f75042, 2025-12-25)"
   xmlns:inkscape="http://www.inkscape.org/namespaces/inkscape"
   xmlns:sodipodi="http://sodipodi.sourceforge.net/DTD/sodipodi-0.dtd"
   xmlns="http://www.w3.org/2000/svg"
   xmlns:svg="http://www.w3.org/2000/svg"><defs
     id="defs13" /><sodipodi:namedview
     id="namedview13"
     pagecolor="#ffffff"
     bordercolor="#000000"
     borderopacity="0.25"
     inkscape:showpageshadow="2"
     inkscape:pageopacity="0.0"
     inkscape:pagecheckerboard="0"
     inkscape:deskcolor="#d1d1d1"
     showgrid="false"
     inkscape:zoom="7.8223688"
     inkscape:cx="12.847771"
     inkscape:cy="26.526492"
     inkscape:window-width="1332"
     inkscape:window-height="734"
     inkscape:window-x="0"
     inkscape:window-y="0"
     inkscape:window-maximized="1"
     inkscape:current-layer="svg13" /><path
     style="fill:#a5f5fc;fill-opacity:1;stroke:#ffffff;stroke-opacity:1;stroke-width:4;stroke-dasharray:none;stroke-linejoin:round;stroke-linecap:round;paint-order:stroke fill markers"
     d="M 37.361,30 A 2.2944,2.2939 0 0 1 38.937,30.694 L 44.289,36.046 A 2.2944,2.2939 0 1 1 41.046,39.29 L 35.694,33.937 A 2.2944,2.2939 0 0 1 37.361,30 Z"
     id="path17" /><rect
     style="fill:#a5f5fc;fill-opacity:1;stroke:#ffffff;stroke-opacity:1;stroke-width:4;stroke-dasharray:none;stroke-linejoin:round;paint-order:stroke fill markers;stroke-linecap:round"
     width="32"
     height="40"
     x="8"
     y="4"
     rx="2"
     ry="2"
     id="rect17" /><path
     style="fill:#5ea6e2;fill-opacity:1;stroke:#45637f;stroke-opacity:1;stroke-width:2;stroke-dasharray:none;stroke-linejoin:round;stroke-linecap:round;paint-order:stroke fill markers"
     d="M 37.361,30 A 2.2944,2.2939 0 0 1 38.937,30.694 L 44.289,36.046 A 2.2944,2.2939 0 1 1 41.046,39.29 L 35.694,33.937 A 2.2944,2.2939 0 0 1 37.361,30 Z"
     id="path16" /><rect
     style="fill:#e9f5ff;fill-opacity:1;stroke:#45637f;stroke-opacity:1;stroke-width:2;stroke-dasharray:none;stroke-linejoin:round;paint-order:stroke fill markers;stroke-linecap:round"
     width="32"
     height="40"
     x="8"
     y="4"
     rx="2"
     ry="2"
     id="rect2" /><path
     style="opacity:0.702;fill:#ffffff"
     d="M 10 4 C 8.892 4 8 4.892 8 6 L 8 7 C 8 5.892 8.892 5 10 5 L 38 5 C 39.108 5 40 5.892 40 7 L 40 6 C 40 4.892 39.108 4 38 4 L 10 4 z"
     id="path2" /><path
     style="opacity:1;fill:#afceec;fill-opacity:1"
     d="M 13,41 C 13,41 12,41 12,42 12,43 13,43 13,43 H 19 C 19,43 20,43 20,42 20,41 19,41 19,41 Z M 23,41 C 23,41 22,41 22,42 22,43 23,43 23,43 H 35 C 35,43 36,43 36,42 36,41 35,41 35,41 Z M 13,33 C 13,33 12,33 12,34 12,35 13,35 13,35 H 19 C 19,35 20,35 20,34 20,33 19,33 19,33 Z M 23,33 C 23,33 22,33 22,34 22,35 23,35 23,35 H 35 C 35,35 36,35 36,34 36,33 35,33 35,33 Z M 23,37 C 23,37 22,37 22,38 22,39 23,39 23,39 H 32 C 32,39 33,39 33,38 33,37 32,37 32,37 Z M 13,25 C 13,25 12,25 12,26 12,27 13,27 13,27 H 19 C 19,27 20,27 20,26 20,25 19,25 19,25 Z M 23,25 C 23,25 22,25 22,26 22,27 23,27 23,27 H 35 C 35,27 36,27 36,26 36,25 35,25 35,25 Z M 23,29 C 23,29 22,29 22,30 22,31 23,31 23,31 H 32 C 32,31 33,31 33,30 33,29 32,29 32,29 Z M 13,17 C 13,17 12,17 12,18 12,19 13,19 13,19 H 19 C 19,19 20,19 20,18 20,17 19,17 19,17 Z M 23,17 C 23,17 22,17 22,18 22,19 23,19 23,19 H 35 C 35,19 36,19 36,18 36,17 35,17 35,17 Z M 23,21 C 23,21 22,21 22,22 22,23 23,23 23,23 H 32 C 32,23 33,23 33,22 33,21 32,21 32,21 Z M 13,9 C 13,9 12,9 12,10 12,11 13,11 13,11 H 19 C 19,11 20,11 20,10 20,9 19,9 19,9 Z M 23,9 C 23,9 22,9 22,10 22,11 23,11 23,11 H 35 C 35,11 36,11 36,10 36,9 35,9 35,9 Z M 23,13 C 23,13 22,13 22,14 22,15 23,15 23,15 H 32 C 32,15 33,15 33,14 33,13 32,13 32,13 Z"
     id="path3" /><path
     style="fill:#26caff;fill-opacity:1"
     d="M 23,16 C 23,16 22,16 22,17 22,18 23,18 23,18 H 35 C 35,18 36,18 36,17 36,16 35,16 35,16 Z M 23,20 C 23,20 22,20 22,21 22,22 23,22 23,22 H 32 C 32,22 33,22 33,21 33,20 32,20 32,20 Z"
     id="path4" /><path
     style="fill:#26caff;fill-opacity:1"
     d="M 13,16 C 13,16 12,16 12,17 12,18 13,18 13,18 H 19 C 19,18 20,18 20,17 20,16 19,16 19,16 Z"
     id="path5" /><path
     style="fill:#25a6e8;fill-opacity:1"
     d="M 23,40 C 23,40 22,40 22,41 22,42 23,42 23,42 H 35 C 35,42 36,42 36,41 36,40 35,40 35,40 Z M 23,32 C 23,32 22,32 22,33 22,34 23,34 23,34 H 35 C 35,34 36,34 36,33 36,32 35,32 35,32 Z M 23,36 C 23,36 22,36 22,37 22,38 23,38 23,38 H 32 C 32,38 33,38 33,37 33,36 32,36 32,36 Z M 23,24 C 23,24 22,24 22,25 22,26 23,26 23,26 H 35 C 35,26 36,26 36,25 36,24 35,24 35,24 Z M 23,28 C 23,28 22,28 22,29 22,30 23,30 23,30 H 32 C 32,30 33,30 33,29 33,28 32,28 32,28 Z M 23,8 C 23,8 22,8 22,9 22,10 23,10 23,10 H 35 C 35,10 36,10 36,9 36,8 35,8 35,8 Z M 23,12 C 23,12 22,12 22,13 22,14 23,14 23,14 H 32 C 32,14 33,14 33,13 33,12 32,12 32,12 Z"
     id="path6" /><path
     style="fill:#25a6e8;fill-opacity:1"
     d="M 13,40 C 13,40 12,40 12,41 12,42 13,42 13,42 H 19 C 19,42 20,42 20,41 20,40 19,40 19,40 Z M 13,32 C 13,32 12,32 12,33 12,34 13,34 13,34 H 19 C 19,34 20,34 20,33 20,32 19,32 19,32 Z M 13,24 C 13,24 12,24 12,25 12,26 13,26 13,26 H 19 C 19,26 20,26 20,25 20,24 19,24 19,24 Z M 13,8 C 13,8 12,8 12,9 12,10 13,10 13,10 H 19 C 19,10 20,10 20,9 20,8 19,8 19,8 Z"
     id="path7" /><circle
     style="opacity:0.3;fill:#ffffff"
     cx="24"
     cy="19"
     r="12"
     id="circle7" /><path
     style="fill:none;stroke:#000000;stroke-width:2;opacity:0.146"
     d="M 37,33 32,28"
     id="path8" /><path
     style="fill:none;stroke:#78909c;stroke-width:2"
     d="M 37,32 32,27"
     id="path9" /><path
     style="display:inline;opacity:0.1"
     d="m 24,7 c 7.2,0 13,5.8 13,13 0,7.2 -5.8,13 -13,13 C 16.8,33 11,27.2 11,20 11,12.8 16.8,7 24,7 Z m 0,3 c -5.5,0 -10,4.5 -10,10 0,5.5 4.5,10 10,10 5.5,0 10,-4.5 10,-10 0,-5.5 -4.5,-10 -10,-10 z"
     id="path10" /><path
     style="display:inline;fill:#45637f;fill-opacity:1"
     d="m 24,6 c 7.2,0 13,5.8 13,13 0,7.2 -5.8,13 -13,13 C 16.8,32 11,26.2 11,19 11,11.8 16.8,6 24,6 Z m 0,3 c -5.5,0 -10,4.5 -10,10 0,5.5 4.5,10 10,10 5.5,0 10,-4.5 10,-10 C 34,13.5 29.5,9 24,9 Z"
     id="path11" /><path
     d="m 40,32.755859 -1.0625,-1.0625 A 2.2944,2.2939 0 0 0 37.361328,31 2.2944,2.2939 0 0 0 35.693359,34.9375 L 40,39.242187 Z"
     style="opacity:0.2"
     id="path15" /><path
     style="fill:#5ea6e2;fill-opacity:1"
     d="M 37.361,30 A 2.2944,2.2939 0 0 1 38.937,30.694 L 44.289,36.046 A 2.2944,2.2939 0 1 1 41.046,39.29 L 35.694,33.937 A 2.2944,2.2939 0 0 1 37.361,30 Z"
     id="path13" /></svg>
