<?xml version="1.0" encoding="UTF-8" standalone="no"?>
<svg
   width="48"
   height="48"
   version="1.1"
   id="svg4"
   sodipodi:docname="zed.svg"
   xml:space="preserve"
   inkscape:version="1.4.3 (0d15f75042, 2025-12-25)"
   xmlns:inkscape="http://www.inkscape.org/namespaces/inkscape"
   xmlns:sodipodi="http://sodipodi.sourceforge.net/DTD/sodipodi-0.dtd"
   xmlns="http://www.w3.org/2000/svg"
   xmlns:svg="http://www.w3.org/2000/svg"><defs
     id="defs4" /><sodipodi:namedview
     id="namedview4"
     pagecolor="#ffffff"
     bordercolor="#000000"
     borderopacity="0.25"
     inkscape:showpageshadow="2"
     inkscape:pageopacity="0.0"
     inkscape:pagecheckerboard="0"
     inkscape:deskcolor="#d1d1d1"
     showgrid="false"
     inkscape:zoom="11.0625"
     inkscape:cx="23.954802"
     inkscape:cy="24"
     inkscape:window-width="1332"
     inkscape:window-height="734"
     inkscape:window-x="0"
     inkscape:window-y="0"
     inkscape:window-maximized="1"
     inkscape:current-layer="svg4" /><rect
     x="4"
     y="4"
     width="40"
     height="40"
     ry="4"
     style="fill:#e9f5ff;fill-opacity:1;stroke:#ffffff;stroke-opacity:1;stroke-linejoin:round;stroke-linecap:round;paint-order:stroke fill markers;stroke-width:4;stroke-dasharray:none"
     id="rect4" /><rect
     x="4"
     y="4"
     width="40"
     height="40"
     ry="4"
     style="fill:#e9f5ff;fill-opacity:1;stroke:#45637f;stroke-opacity:1;stroke-linejoin:round;stroke-linecap:round;paint-order:stroke fill markers;stroke-width:2;stroke-dasharray:none"
     id="rect2" /><path
     d="m8 4c-2.216 0-4 1.784-4 4v1c0-2.216 1.784-4 4-4h32c2.216 0 4 1.784 4 4v-1c0-2.216-1.784-4-4-4z"
     style="fill:#ffffff;opacity:0.667"
     id="path2" /><path
     d="m12 12.5v11h1v-10h21.25l-3 3h-15.25v7h1v-6h13.25l-3 3h-7.25v3h1v-2h5.25l-14.25 14.25v0.75h24v-11h-1v10h-21.25l3-3h15.25v-7h-1v6h-13.25l3-3h7.25v-3h-1v2h-5.25l14.25-14.25v-0.75z"
     style="opacity:1;fill:#afceec;fill-opacity:1"
     id="path3" /><path
     d="m12 12v11h1v-10h21.25l-3 3h-15.25v7h1v-6h13.25l-3 3h-7.25v3h1v-2h5.25l-14.25 14.25v0.75h24v-11h-1v10h-21.25l3-3h15.25v-7h-1v6h-13.25l3-3h7.25v-3h-1v2h-5.25l14.25-14.25v-0.75z"
     style="fill:#26caff;fill-opacity:1"
     id="path4" /></svg>
